<svg id="Layer_1" data-name="Layer 1" xmlns="http://www.w3.org/2000/svg" viewBox="0 0 128 128"><defs><style>.cls-1{fill:#eb5b00;}</style></defs><path class="cls-1" d="M99.25,62.61c-.93.14-2,.3-3,.57A29.71,29.71,0,0,0,98,71.32a5.33,5.33,0,0,1,.28,1.06c5.29-2.25,10.31-5.36,6-16.18C104.9,61.75,102.74,62.08,99.25,62.61Z"/><path class="cls-1" d="M28.8,62.61c-3.49-.53-5.65-.86-5-6.41-4.44,10,.69,13.71,6,16.14a5.89,5.89,0,0,1,.27-1,29.71,29.71,0,0,0,1.75-8.14C30.75,62.91,29.73,62.75,28.8,62.61Z"/><path class="cls-1" d="M69.9,81.71c6-2.48,13.63-5.65,8.49-17.18.66,5.54-1.5,5.87-5,6.4a18.44,18.44,0,0,0-8,2.69V72.56a18.44,18.44,0,0,1,8-2.69l.37-.06v-8a9.9,9.9,0,0,0-.37-2.85q-1.06-3.76-6.65-3.77H65.38v6.31a4.29,4.29,0,0,1,0,8.08v4.77l.05-.08v1.07L64,77.47l-1.43-2.16V69.58a4.29,4.29,0,0,1,0-8.14V55.16H61.22q-3.81,0-5.49,1.71-1.53,1.56-1.53,4.91v8l.41.06a18.44,18.44,0,0,1,8,2.69v1.06a18.44,18.44,0,0,0-8-2.69c-3.5-.53-5.66-.86-5-6.4-5.14,11.53,2.52,14.7,8.49,17.18l1.65.7,4.46,7.79,4.61-8Z"/><path class="cls-1" d="M112.68,29.19l1.36-.54A6.84,6.84,0,0,0,112.68,29.19Z"/><path class="cls-1" d="M112.68,29.19C96.24,35.83,94.23,39.48,90.5,46.25A78,78,0,0,1,78.77,62.74c8.92-5.85,10.27,12.78,0,21.58-5.62,4.81-7.54,6-8.91,7.66A16.11,16.11,0,0,0,68,95a60.68,60.68,0,0,1,21.68-13.5,26.61,26.61,0,0,0,6.63-3.37c1.28-2.67,1.56-4.84.89-6.66C90.11,52.24,105.24,33,112.68,29.19Z"/><path class="cls-1" d="M69.57,96.76c5.9-3.59,13.56-6.33,16.09-5a85.2,85.2,0,0,0,8.06-9.36c-1,.47-2.07.93-3.26,1.36A58.25,58.25,0,0,0,69.57,96.76Z"/><path class="cls-1" d="M65.81,99.35l.06,0,0,0Z"/><path class="cls-1" d="M83.48,55.51c.53-.57,1-1.13,1.51-1.67-1.19.53-2.47,1.08-3.84,1.63A7.42,7.42,0,0,1,83.48,55.51Z"/><path class="cls-1" d="M100.41,44.72a35.37,35.37,0,0,0-4.22,17.81c6.34-14.64,23.11-22.26,30.14-22.38C110.09,39,105.89,41,100.41,44.72Z"/><path class="cls-1" d="M126.33,40.15l1.46.11A7.17,7.17,0,0,0,126.33,40.15Z"/><path class="cls-1" d="M53.46,82.74h.07l0,0Z"/><path class="cls-1" d="M46.85,55.47c-1.37-.55-2.65-1.1-3.84-1.63.48.54,1,1.1,1.51,1.67A7.42,7.42,0,0,1,46.85,55.47Z"/><path class="cls-1" d="M31.81,62.53a35.37,35.37,0,0,0-4.22-17.81C22.11,41,17.91,39,1.67,40.15,8.71,40.27,25.47,47.89,31.81,62.53Z"/><path class="cls-1" d="M.21,40.26l1.46-.11A7.17,7.17,0,0,0,.21,40.26Z"/><path class="cls-1" d="M74.54,82.74l-.05,0,0,0Z"/><path class="cls-1" d="M15.35,29.19A6.77,6.77,0,0,0,14,28.65Z"/><path class="cls-1" d="M49.26,84.32c-10.26-8.8-8.92-27.43,0-21.58A77.49,77.49,0,0,1,37.54,46.25c-3.73-6.77-5.75-10.42-22.19-17.06C22.79,33,37.93,52.24,30.85,71.5c-.67,1.82-.39,4,.9,6.66a26.34,26.34,0,0,0,6.62,3.37A60.83,60.83,0,0,1,60.06,95a16.61,16.61,0,0,0-1.89-3C56.8,90.32,54.88,89.13,49.26,84.32Z"/><path class="cls-1" d="M34.31,82.37a85.43,85.43,0,0,0,8.07,9.36c2.53-1.3,10.19,1.44,16.09,5a58.4,58.4,0,0,0-20.9-13C36.38,83.3,35.3,82.84,34.31,82.37Z"/><path class="cls-1" d="M62.16,99.31l.06,0,0-.06Z"/></svg>