<svg xmlns="http://www.w3.org/2000/svg" version="1.1" xmlns:xlink="http://www.w3.org/1999/xlink" xmlns:svgjs="http://svgjs.dev/svgjs" width="1440" height="560" preserveAspectRatio="none" viewBox="0 0 1440 560"><g mask="url(&quot;#SvgjsMask1970&quot;)" fill="none"><path d="M229.78 627.62C374.62 604.77 444.09 259.16 682.9 255.2 921.71 251.24 909.46 325.2 1136.03 325.2 1362.59 325.2 1474.53 255.41 1589.15 255.2" stroke="rgba(156, 163, 175, 1)" stroke-width="2"></path><path d="M362.3 598.66C516.75 557.47 559 140.38 798.48 131.16 1037.97 121.94 1016.57 201.16 1234.67 201.16 1452.76 201.16 1560.41 131.38 1670.85 131.16" stroke="rgba(156, 163, 175, 1)" stroke-width="2"></path><path d="M644.86 628.19C763.29 597.16 726.81 271.97 980.62 271.72 1234.43 271.47 1474.75 498.18 1652.14 501.32" stroke="rgba(156, 163, 175, 1)" stroke-width="2"></path><path d="M799.32 621.05C923.29 599.17 958.98 307.85 1179.73 291.12 1400.48 274.39 1460.19 169.44 1560.14 167.92" stroke="rgba(156, 163, 175, 1)" stroke-width="2"></path><path d="M530.16 662.01C648.87 628.03 609.62 294.87 860.03 294.4 1110.44 293.93 1346.48 504.59 1519.76 507.2" stroke="rgba(156, 163, 175, 1)" stroke-width="2"></path></g><defs><mask id="SvgjsMask1970"><rect width="1440" height="560" fill="#ffffff"></rect></mask></defs></svg>